<?xml version="1.0" encoding="UTF-8"?>
<svg viewBox="0 0 463.89 438.88" xmlns="http://www.w3.org/2000/svg">
 <g fill="#3f7f00" stroke-width=".4">
  <path d="m395.81 223.1zl-162.81-144.19-162.91 144.25v206.12c0 5.3234 4.3016 9.5938 9.625 9.5938h101.81v-90.375c0-5.3234 4.2704-9.625 9.5938-9.625h83.656c5.3234 0 9.5938 4.3016 9.5938 9.625v90.375h101.84c5.3234 0 9.5938-4.2703 9.5938-9.5938v-206.19zm-325.72 0.0625z"/>
  <path d="m232.05 0l-231.05 204.58 24.338 27.457 207.66-183.88 207.61 183.88 24.291-27.457-231-204.58-0.8979 1.0397-0.9452-1.0397h-1.5e-5z"/>
  <path d="m70.087 29.449h58.571l-0.5104 34.691-58.061 52.452v-87.143z"/>
 </g>
 <g stroke-width="5">
  <rect x="216.11" y="142.12" width="34" height="174" fill="#fff" stroke="#3f7f00"/>
  <g fill="#fcfcfc" stroke-dasharray="null" stroke-linecap="null" stroke-linejoin="null">
   <rect x="176.11" y="186.12" width="115" height="28"/>
   <rect x="-114.89" y="177.12" width="0" height="2"/>
  </g>
 </g>
</svg>
